<svg id="SvgjsSvg1006" width="945" height="372.26251220703125" xmlns="http://www.w3.org/2000/svg" version="1.1" xmlns:xlink="http://www.w3.org/1999/xlink" xmlns:svgjs="http://svgjs.com/svgjs"><defs id="SvgjsDefs1007"><pattern patternUnits="userSpaceOnUse" id="pattern_mark_0" width="300" height="300"><text x="150" y="100" fill="rgba(226,224,210,0.8)" font-size="18" transform="rotate(-45, 150, 150)" style="dominant-baseline: middle; text-anchor: middle;"></text></pattern><pattern patternUnits="userSpaceOnUse" id="pattern_mark_1" width="300" height="300"><text x="150" y="200" fill="rgba(226,224,210,0.8)" font-size="18" transform="rotate(-45, 150, 150)" style="dominant-baseline: middle; text-anchor: middle;"></text></pattern><marker id="SvgjsMarker1019" markerWidth="12" markerHeight="8" refX="9" refY="4" viewBox="0 0 12 8" orient="auto" markerUnits="userSpaceOnUse" stroke-dasharray="0,0"><path id="SvgjsPath1020" d="M0,0 L12,4 L0,8 L0,0" fill="#000000" stroke="#000000" stroke-width="1"></path></marker><linearGradient id="SvgjsLinearGradient1031" x1="0.9999999999999987" y1="0.5000000366025518" x2="1.3322676295501878e-15" y2="0.4999999633974483"><stop id="SvgjsStop1032" stop-opacity="1" stop-color="#fefefe" offset="0"></stop><stop id="SvgjsStop1033" stop-opacity="1" stop-color="#fefefe" offset="1"></stop></linearGradient><marker id="SvgjsMarker1054" markerWidth="13" markerHeight="9" refX="9.5" refY="4.5" viewBox="0 0 13 9" orient="auto" markerUnits="userSpaceOnUse" stroke-dasharray="0,0"><path id="SvgjsPath1055" d="M0,0 L13,4.5 L0,9 L0,0" fill="#323232" stroke="#323232" stroke-width="1"></path></marker><linearGradient id="SvgjsLinearGradient1058" x1="0.9999999999999987" y1="0.5000000366025518" x2="1.3322676295501878e-15" y2="0.4999999633974483"><stop id="SvgjsStop1059" stop-opacity="1" stop-color="#fefefe" offset="0"></stop><stop id="SvgjsStop1060" stop-opacity="1" stop-color="#fefefe" offset="1"></stop></linearGradient><linearGradient id="SvgjsLinearGradient1109" x1="0.9999999999999987" y1="0.5000000366025518" x2="1.3322676295501878e-15" y2="0.4999999633974483"><stop id="SvgjsStop1110" stop-opacity="1" stop-color="#fefefe" offset="0"></stop><stop id="SvgjsStop1111" stop-opacity="1" stop-color="#fefefe" offset="1"></stop></linearGradient><marker id="SvgjsMarker1128" markerWidth="12" markerHeight="8" refX="9" refY="4" viewBox="0 0 12 8" orient="auto" markerUnits="userSpaceOnUse" stroke-dasharray="0,0"><path id="SvgjsPath1129" d="M0,0 L12,4 L0,8 L0,0" fill="#000000" stroke="#000000" stroke-width="1"></path></marker><linearGradient id="SvgjsLinearGradient1132" x1="0.9999999999999987" y1="0.5000000366025518" x2="1.3322676295501878e-15" y2="0.4999999633974483"><stop id="SvgjsStop1133" stop-opacity="1" stop-color="#fefefe" offset="0"></stop><stop id="SvgjsStop1134" stop-opacity="1" stop-color="#fefefe" offset="1"></stop></linearGradient><marker id="SvgjsMarker1149" markerWidth="13" markerHeight="9" refX="9.5" refY="4.5" viewBox="0 0 13 9" orient="auto" markerUnits="userSpaceOnUse" stroke-dasharray="0,0"><path id="SvgjsPath1150" d="M0,0 L13,4.5 L0,9 L0,0" fill="#323232" stroke="#323232" stroke-width="1"></path></marker><linearGradient id="SvgjsLinearGradient1153" x1="0.9999999999999987" y1="0.5000000366025518" x2="1.3322676295501878e-15" y2="0.4999999633974483"><stop id="SvgjsStop1154" stop-opacity="1" stop-color="#fefefe" offset="0"></stop><stop id="SvgjsStop1155" stop-opacity="1" stop-color="#fefefe" offset="1"></stop></linearGradient></defs><rect id="svgbackgroundid" width="945" height="372.26251220703125" fill="#fcf9ea"></rect><rect id="SvgjsRect1009" width="945" height="372.26251220703125" fill="url(#pattern_mark_0)"></rect><rect id="SvgjsRect1010" width="945" height="372.26251220703125" fill="url(#pattern_mark_1)"></rect><g id="SvgjsG1011" transform="translate(25.008928571428214,133.8357135227747)"><path id="SvgjsPath1012" d="M 0 16C 0 -5.333333333333333 32 -5.333333333333333 32 16C 32 37.333333333333336 0 37.333333333333336 0 16Z" stroke="rgba(0,0,0,1)" stroke-width="2" fill-opacity="1" fill="#ffffff"></path><g id="SvgjsG1013"><text id="SvgjsText1014" font-family="Arial" text-anchor="middle" font-size="13px" width="120px" fill="#000000" font-weight="400" align="middle" lineHeight="125%" anchor="middle" family="Arial" size="13px" weight="400" font-style="" opacity="1" y="36.375" transform="rotate(0)"><tspan id="SvgjsTspan1015" dy="16" x="16"><tspan id="SvgjsTspan1016" style="text-decoration:;">8082服务</tspan></tspan></text></g></g><g id="SvgjsG1017"><path id="SvgjsPath1018" d="M58.008928571428214 149.8357135227747L167.70892857142837 149.8357135227747" stroke="#000000" stroke-width="1" fill="none" marker-end="url(#SvgjsMarker1019)"></path></g><g id="SvgjsG1021" transform="translate(170.00892857142833,60.9642895289831)"><path id="SvgjsPath1022" d="M 0 4Q 0 0 4 0L 69.82857104710206 0Q 73.82857104710206 0 73.82857104710206 4L 73.82857104710206 25.91428266252774Q 73.82857104710206 29.91428266252774 69.82857104710206 29.91428266252774L 4 29.91428266252774Q 0 29.91428266252774 0 25.91428266252774Z" stroke="rgba(0,0,0,1)" stroke-width="2" fill-opacity="1" fill="#4ccbcd"></path><g id="SvgjsG1023"><text id="SvgjsText1024" font-family="Arial" text-anchor="middle" font-size="13px" width="54px" fill="#000000" font-weight="400" align="middle" lineHeight="125%" anchor="middle" family="Arial" size="13px" weight="400" font-style="" opacity="1" y="-4.16785866873613" transform="rotate(0)"><tspan id="SvgjsTspan1025" dy="16" x="37"><tspan id="SvgjsTspan1026" style="text-decoration:;">client</tspan></tspan><tspan id="SvgjsTspan1027" dy="16" x="37"><tspan id="SvgjsTspan1028" style="text-decoration:;">8081</tspan></tspan></text></g></g><g id="SvgjsG1029" transform="translate(304.00892857142856,97.44286019461504)"><path id="SvgjsPath1030" d="M 0 4Q 0 0 4 0L 71.82857104710172 0Q 75.82857104710172 0 75.82857104710172 4L 75.82857104710172 27.91428266252774Q 75.82857104710172 31.91428266252774 71.82857104710172 31.91428266252774L 4 31.91428266252774Q 0 31.91428266252774 0 27.91428266252774Z" stroke="rgba(0,0,0,1)" stroke-width="2" fill="url(#SvgjsLinearGradient1031)"></path><g id="SvgjsG1034"><text id="SvgjsText1035" font-family="Arial" text-anchor="middle" font-size="13px" width="56px" fill="#000000" font-weight="400" align="middle" lineHeight="125%" anchor="middle" family="Arial" size="13px" weight="400" font-style="" opacity="1" y="-3.1678586687361303" transform="rotate(0)"><tspan id="SvgjsTspan1036" dy="16" x="38"><tspan id="SvgjsTspan1037" style="text-decoration:;">client</tspan></tspan><tspan id="SvgjsTspan1038" dy="16" x="38"><tspan id="SvgjsTspan1039" style="text-decoration:;">2364</tspan></tspan></text></g></g><g id="SvgjsG1040" transform="translate(888.0089285714284,97.44286019461504)"><path id="SvgjsPath1041" d="M 0 16C 0 -5.333333333333333 32 -5.333333333333333 32 16C 32 37.333333333333336 0 37.333333333333336 0 16Z" stroke="rgba(0,0,0,1)" stroke-width="3" fill-opacity="1" fill="#ffffff"></path><g id="SvgjsG1042"><text id="SvgjsText1043" font-family="Arial" text-anchor="middle" font-size="13px" width="120px" fill="#000000" font-weight="400" align="middle" lineHeight="125%" anchor="middle" family="Arial" size="13px" weight="400" font-style="" opacity="1" y="36.375" transform="rotate(0)"><tspan id="SvgjsTspan1044" dy="16" x="16"><tspan id="SvgjsTspan1045" style="text-decoration:;">外部访问</tspan></tspan></text></g></g><g id="SvgjsG1046" transform="translate(25.008928571428214,59.92143086024697)"><path id="SvgjsPath1047" d="M 0 16C 0 -5.333333333333333 32 -5.333333333333333 32 16C 32 37.333333333333336 0 37.333333333333336 0 16Z" stroke="rgba(0,0,0,1)" stroke-width="2" fill-opacity="1" fill="#ffffff"></path><g id="SvgjsG1048"><text id="SvgjsText1049" font-family="Arial" text-anchor="middle" font-size="13px" width="120px" fill="#000000" font-weight="400" align="middle" lineHeight="125%" anchor="middle" family="Arial" size="13px" weight="400" font-style="" opacity="1" y="36.375" transform="rotate(0)"><tspan id="SvgjsTspan1050" dy="16" x="16"><tspan id="SvgjsTspan1051" style="text-decoration:;">8081服务</tspan></tspan></text></g></g><g id="SvgjsG1052"><path id="SvgjsPath1053" d="M58.008928571428214 75.92143086024697L167.05892857142828 75.92143086024697" stroke="#323232" stroke-width="1.5" fill="none" marker-end="url(#SvgjsMarker1054)"></path></g><g id="SvgjsG1056" transform="translate(564.0089285714284,180.35714285714278)"><path id="SvgjsPath1057" d="M 0 4Q 0 0 4 0L 71.82857104710172 0Q 75.82857104710172 0 75.82857104710172 4L 75.82857104710172 27.91428266252774Q 75.82857104710172 31.91428266252774 71.82857104710172 31.91428266252774L 4 31.91428266252774Q 0 31.91428266252774 0 27.91428266252774Z" stroke="rgba(0,0,0,1)" stroke-width="2" fill="url(#SvgjsLinearGradient1058)"></path><g id="SvgjsG1061"><text id="SvgjsText1062" font-family="Arial" text-anchor="middle" font-size="13px" width="56px" fill="#000000" font-weight="400" align="middle" lineHeight="125%" anchor="middle" family="Arial" size="13px" weight="400" font-style="" opacity="1" y="-3.1678586687361303" transform="rotate(0)"><tspan id="SvgjsTspan1063" dy="16" x="38"><tspan id="SvgjsTspan1064" style="text-decoration:;">server</tspan></tspan><tspan id="SvgjsTspan1065" dy="16" x="38"><tspan id="SvgjsTspan1066" style="text-decoration:;">2364</tspan></tspan></text></g></g><g id="SvgjsG1067" transform="translate(702.0089285714284,146.35714285714278)"><path id="SvgjsPath1068" d="M 0 4Q 0 0 4 0L 71.82857104710172 0Q 75.82857104710172 0 75.82857104710172 4L 75.82857104710172 27.91428266252774Q 75.82857104710172 31.91428266252774 71.82857104710172 31.91428266252774L 4 31.91428266252774Q 0 31.91428266252774 0 27.91428266252774Z" stroke="rgba(0,0,0,1)" stroke-width="2" fill-opacity="1" fill="#4ccbcd"></path><g id="SvgjsG1069"><text id="SvgjsText1070" font-family="Arial" text-anchor="middle" font-size="13px" width="56px" fill="#000000" font-weight="400" align="middle" lineHeight="125%" anchor="middle" family="Arial" size="13px" weight="400" font-style="" opacity="1" y="-3.1678586687361303" transform="rotate(0)"><tspan id="SvgjsTspan1071" dy="16" x="38"><tspan id="SvgjsTspan1072" style="text-decoration:;">server</tspan></tspan><tspan id="SvgjsTspan1073" dy="16" x="38"><tspan id="SvgjsTspan1074" style="text-decoration:;">9091</tspan></tspan></text></g></g><g id="SvgjsG1075"><path id="SvgjsPath1076" d="M640.7028895987276 195.8131852139773L701.1435385912312 160.81538316283599" stroke-dasharray="8,5" stroke="#323232" stroke-width="1.5" fill="none"></path></g><g id="SvgjsG1077"><path id="SvgjsPath1078" d="M380.74935229836376 113.81051911415062L563.097075891595 195.90376660013493" stroke="#323232" stroke-width="1.5" fill="none"></path></g><g id="SvgjsG1079" transform="translate(170.00892857142833,134.87857219151084)"><path id="SvgjsPath1080" d="M 0 4Q 0 0 4 0L 69.82857104710206 0Q 73.82857104710206 0 73.82857104710206 4L 73.82857104710206 25.91428266252774Q 73.82857104710206 29.91428266252774 69.82857104710206 29.91428266252774L 4 29.91428266252774Q 0 29.91428266252774 0 25.91428266252774Z" stroke="rgba(0,0,0,1)" stroke-width="2" fill-opacity="1" fill="#f199c8"></path><g id="SvgjsG1081"><text id="SvgjsText1082" font-family="Arial" text-anchor="middle" font-size="13px" width="54px" fill="#000000" font-weight="400" align="middle" lineHeight="125%" anchor="middle" family="Arial" size="13px" weight="400" font-style="" opacity="1" y="-4.16785866873613" transform="rotate(0)"><tspan id="SvgjsTspan1083" dy="16" x="37"><tspan id="SvgjsTspan1084" style="text-decoration:;">client</tspan></tspan><tspan id="SvgjsTspan1085" dy="16" x="37"><tspan id="SvgjsTspan1086" style="text-decoration:;">8082</tspan></tspan></text></g></g><g id="SvgjsG1087"><path id="SvgjsPath1088" d="M244.6928978965518 149.31774268772898L303.15353029340713 113.91797236092464" stroke-dasharray="8,5" stroke="#323232" stroke-width="1.5" fill="none"></path></g><g id="SvgjsG1089" transform="translate(702.0089285714284,220.35714285714278)"><path id="SvgjsPath1090" d="M 0 4Q 0 0 4 0L 71.82857104710172 0Q 75.82857104710172 0 75.82857104710172 4L 75.82857104710172 27.91428266252774Q 75.82857104710172 31.91428266252774 71.82857104710172 31.91428266252774L 4 31.91428266252774Q 0 31.91428266252774 0 27.91428266252774Z" stroke="rgba(0,0,0,1)" stroke-width="2" fill-opacity="1" fill="#f199c8"></path><g id="SvgjsG1091"><text id="SvgjsText1092" font-family="Arial" text-anchor="middle" font-size="13px" width="56px" fill="#000000" font-weight="400" align="middle" lineHeight="125%" anchor="middle" family="Arial" size="13px" weight="400" font-style="" opacity="1" y="-3.1678586687361303" transform="rotate(0)"><tspan id="SvgjsTspan1093" dy="16" x="38"><tspan id="SvgjsTspan1094" style="text-decoration:;">server</tspan></tspan><tspan id="SvgjsTspan1095" dy="16" x="38"><tspan id="SvgjsTspan1096" style="text-decoration:;">9092</tspan></tspan></text></g></g><g id="SvgjsG1097"><path id="SvgjsPath1098" d="M640.6784771242787 196.85535427150586L701.16795106568 235.7732141053075" stroke-dasharray="8,5" stroke="#323232" stroke-width="1.5" fill="none"></path></g><g id="SvgjsG1099" transform="translate(888.0089285714284,186.48571886335117)"><path id="SvgjsPath1100" d="M 0 16C 0 -5.333333333333333 32 -5.333333333333333 32 16C 32 37.333333333333336 0 37.333333333333336 0 16Z" stroke="rgba(0,0,0,1)" stroke-width="3" fill-opacity="1" fill="#ffffff"></path><g id="SvgjsG1101"><text id="SvgjsText1102" font-family="Arial" text-anchor="middle" font-size="13px" width="120px" fill="#000000" font-weight="400" align="middle" lineHeight="125%" anchor="middle" family="Arial" size="13px" weight="400" font-style="" opacity="1" y="36.375" transform="rotate(0)"><tspan id="SvgjsTspan1103" dy="16" x="16"><tspan id="SvgjsTspan1104" style="text-decoration:;">外部访问</tspan></tspan></text></g></g><g id="SvgjsG1105"><path id="SvgjsPath1106" d="M887.5391814354946 202.31443655754595L778.776993890398 162.6568488000171" stroke="#323232" stroke-width="1.5" fill="none"></path></g><g id="SvgjsG1107" transform="translate(312.00892857142844,259.3571428571428)"><path id="SvgjsPath1108" d="M 0 4Q 0 0 4 0L 69.82857104710183 0Q 73.82857104710183 0 73.82857104710183 4L 73.82857104710183 27.91428266252774Q 73.82857104710183 31.91428266252774 69.82857104710183 31.91428266252774L 4 31.91428266252774Q 0 31.91428266252774 0 27.91428266252774Z" stroke="rgba(0,0,0,1)" stroke-width="2" fill="url(#SvgjsLinearGradient1109)"></path><g id="SvgjsG1112"><text id="SvgjsText1113" font-family="Arial" text-anchor="middle" font-size="13px" width="54px" fill="#000000" font-weight="400" align="middle" lineHeight="125%" anchor="middle" family="Arial" size="13px" weight="400" font-style="" opacity="1" y="-3.1678586687361303" transform="rotate(0)"><tspan id="SvgjsTspan1114" dy="16" x="37"><tspan id="SvgjsTspan1115" style="text-decoration:;">client</tspan></tspan><tspan id="SvgjsTspan1116" dy="16" x="37"><tspan id="SvgjsTspan1117" style="text-decoration:;">2364</tspan></tspan></text></g></g><g id="SvgjsG1118"><path id="SvgjsPath1119" d="M386.7516674797881 274.9089483752306L563.0947607101706 196.71962000158277" stroke="#323232" stroke-width="1.5" fill="none"></path></g><g id="SvgjsG1120" transform="translate(25.008928571428214,302.2714255196705)"><path id="SvgjsPath1121" d="M 0 16C 0 -5.333333333333333 32 -5.333333333333333 32 16C 32 37.333333333333336 0 37.333333333333336 0 16Z" stroke="rgba(0,0,0,1)" stroke-width="2" fill-opacity="1" fill="#ffffff"></path><g id="SvgjsG1122"><text id="SvgjsText1123" font-family="Arial" text-anchor="middle" font-size="13px" width="120px" fill="#000000" font-weight="400" align="middle" lineHeight="125%" anchor="middle" family="Arial" size="13px" weight="400" font-style="" opacity="1" y="36.375" transform="rotate(0)"><tspan id="SvgjsTspan1124" dy="16" x="16"><tspan id="SvgjsTspan1125" style="text-decoration:;">8085服务</tspan></tspan></text></g></g><g id="SvgjsG1126"><path id="SvgjsPath1127" d="M58.008928571428214 318.2714255196705L167.70892857142837 318.2714255196705" stroke="#000000" stroke-width="1" fill="none" marker-end="url(#SvgjsMarker1128)"></path></g><g id="SvgjsG1130" transform="translate(170.00892857142833,229.4000015258789)"><path id="SvgjsPath1131" d="M 0 4Q 0 0 4 0L 69.82857104710206 0Q 73.82857104710206 0 73.82857104710206 4L 73.82857104710206 25.91428266252774Q 73.82857104710206 29.91428266252774 69.82857104710206 29.91428266252774L 4 29.91428266252774Q 0 29.91428266252774 0 25.91428266252774Z" stroke="rgba(0,0,0,1)" stroke-width="2" fill="url(#SvgjsLinearGradient1132)"></path><g id="SvgjsG1135"><text id="SvgjsText1136" font-family="Arial" text-anchor="middle" font-size="13px" width="54px" fill="#000000" font-weight="400" align="middle" lineHeight="125%" anchor="middle" family="Arial" size="13px" weight="400" font-style="" opacity="1" y="-4.16785866873613" transform="rotate(0)"><tspan id="SvgjsTspan1137" dy="16" x="37"><tspan id="SvgjsTspan1138" style="text-decoration:;">client</tspan></tspan><tspan id="SvgjsTspan1139" dy="16" x="37"><tspan id="SvgjsTspan1140" style="text-decoration:;">8081</tspan></tspan></text></g></g><g id="SvgjsG1141" transform="translate(25.008928571428214,228.35714285714278)"><path id="SvgjsPath1142" d="M 0 16C 0 -5.333333333333333 32 -5.333333333333333 32 16C 32 37.333333333333336 0 37.333333333333336 0 16Z" stroke="rgba(0,0,0,1)" stroke-width="2" fill-opacity="1" fill="#ffffff"></path><g id="SvgjsG1143"><text id="SvgjsText1144" font-family="Arial" text-anchor="middle" font-size="13px" width="120px" fill="#000000" font-weight="400" align="middle" lineHeight="125%" anchor="middle" family="Arial" size="13px" weight="400" font-style="" opacity="1" y="36.375" transform="rotate(0)"><tspan id="SvgjsTspan1145" dy="16" x="16"><tspan id="SvgjsTspan1146" style="text-decoration:;">8081服务</tspan></tspan></text></g></g><g id="SvgjsG1147"><path id="SvgjsPath1148" d="M58.008928571428214 244.35714285714278L167.05892857142828 244.35714285714278" stroke="#323232" stroke-width="1.5" fill="none" marker-end="url(#SvgjsMarker1149)"></path></g><g id="SvgjsG1151" transform="translate(170.00892857142833,303.31428418840665)"><path id="SvgjsPath1152" d="M 0 4Q 0 0 4 0L 69.82857104710206 0Q 73.82857104710206 0 73.82857104710206 4L 73.82857104710206 25.91428266252774Q 73.82857104710206 29.91428266252774 69.82857104710206 29.91428266252774L 4 29.91428266252774Q 0 29.91428266252774 0 25.91428266252774Z" stroke="rgba(0,0,0,1)" stroke-width="2" fill="url(#SvgjsLinearGradient1153)"></path><g id="SvgjsG1156"><text id="SvgjsText1157" font-family="Arial" text-anchor="middle" font-size="13px" width="54px" fill="#000000" font-weight="400" align="middle" lineHeight="125%" anchor="middle" family="Arial" size="13px" weight="400" font-style="" opacity="1" y="-4.16785866873613" transform="rotate(0)"><tspan id="SvgjsTspan1158" dy="16" x="37"><tspan id="SvgjsTspan1159" style="text-decoration:;">client</tspan></tspan><tspan id="SvgjsTspan1160" dy="16" x="37"><tspan id="SvgjsTspan1161" style="text-decoration:;">8085</tspan></tspan></text></g></g><g id="SvgjsG1162"><path id="SvgjsPath1163" d="M244.74801633531865 244.770615115522L311.0984118546402 274.90081193002743" stroke-dasharray="8,5" stroke="#323232" stroke-width="1.5" fill="none"></path></g><g id="SvgjsG1164"><path id="SvgjsPath1165" d="M244.68353996897213 317.7383066535399L311.1628882209867 275.84740305453727" stroke-dasharray="8,5" stroke="#323232" stroke-width="1.5" fill="none"></path></g><g id="SvgjsG1166"><path id="SvgjsPath1167" d="M244.68631207278327 76.45012492821547L303.1601161171757 112.8713074579104" stroke-dasharray="8,5" stroke="#323232" stroke-width="1.5" fill="none"></path></g><g id="SvgjsG1168" transform="translate(289.8374996185303,65)"><path id="SvgjsPath1169" d="M 0 0L 100 0L 100 40L 0 40Z" stroke="none" fill="none"></path><g id="SvgjsG1170"><text id="SvgjsText1171" font-family="微软雅黑" text-anchor="middle" font-size="13px" width="100px" fill="#323232" font-weight="400" align="middle" lineHeight="125%" anchor="middle" family="微软雅黑" size="13px" weight="400" font-style="" opacity="1" y="9.375" transform="rotate(0)"><tspan id="SvgjsTspan1172" dy="16" x="50"><tspan id="SvgjsTspan1173" style="text-decoration:;">1.active</tspan></tspan></text></g></g><g id="SvgjsG1174" transform="translate(548.4375,142.31428418840665)"><path id="SvgjsPath1175" d="M 0 0L 100 0L 100 40L 0 40Z" stroke="none" fill="none"></path><g id="SvgjsG1176"><text id="SvgjsText1177" font-family="微软雅黑" text-anchor="middle" font-size="13px" width="100px" fill="#323232" font-weight="400" align="middle" lineHeight="125%" anchor="middle" family="微软雅黑" size="13px" weight="400" font-style="" opacity="1" y="9.375" transform="rotate(0)"><tspan id="SvgjsTspan1178" dy="16" x="50"><tspan id="SvgjsTspan1179" style="text-decoration:;">2.read</tspan></tspan></text></g></g><g id="SvgjsG1180" transform="translate(689.9232140949794,102.31428418840665)"><path id="SvgjsPath1181" d="M 0 0L 100 0L 100 40L 0 40Z" stroke="none" fill="none"></path><g id="SvgjsG1182"><text id="SvgjsText1183" font-family="微软雅黑" text-anchor="middle" font-size="13px" width="100px" fill="#323232" font-weight="400" align="middle" lineHeight="125%" anchor="middle" family="微软雅黑" size="13px" weight="400" font-style="" opacity="1" y="0.875" transform="rotate(0)"><tspan id="SvgjsTspan1184" dy="16" x="50"><tspan id="SvgjsTspan1185" style="text-decoration:;">3.注入</tspan></tspan><tspan id="SvgjsTspan1186" dy="16" x="50"><tspan id="SvgjsTspan1187" style="text-decoration:;">handler(唯一)</tspan></tspan></text></g></g><g id="SvgjsG1188" transform="translate(773.8374996185303,81.44286019461504)"><path id="SvgjsPath1189" d="M 0 0L 100 0L 100 40L 0 40Z" stroke="none" fill="none"></path><g id="SvgjsG1190"><text id="SvgjsText1191" font-family="微软雅黑" text-anchor="middle" font-size="13px" width="100px" fill="#323232" font-weight="400" align="middle" lineHeight="125%" anchor="middle" family="微软雅黑" size="13px" weight="400" font-style="" opacity="1" y="0.875" transform="rotate(0)"><tspan id="SvgjsTspan1192" dy="16" x="50"><tspan id="SvgjsTspan1193" style="text-decoration:;">4.active建立本地</tspan></tspan><tspan id="SvgjsTspan1194" dy="16" x="50"><tspan id="SvgjsTspan1195" style="text-decoration:;">服务连接</tspan></tspan></text></g></g><g id="SvgjsG1196" transform="translate(285.8374996185303,46)"><path id="SvgjsPath1197" d="M 0 0L 100 0L 100 40L 0 40Z" stroke="none" fill="none"></path><g id="SvgjsG1198"><text id="SvgjsText1199" font-family="微软雅黑" text-anchor="middle" font-size="13px" width="100px" fill="#323232" font-weight="400" align="middle" lineHeight="125%" anchor="middle" family="微软雅黑" size="13px" weight="400" font-style="" opacity="1" y="9.375" transform="rotate(0)"><tspan id="SvgjsTspan1200" dy="16" x="50"><tspan id="SvgjsTspan1201" style="text-decoration:;">5.read</tspan></tspan></text></g></g><g id="SvgjsG1202" transform="translate(160.92321409497936,25)"><path id="SvgjsPath1203" d="M 0 0L 100 0L 100 40L 0 40Z" stroke="none" fill="none"></path><g id="SvgjsG1204"><text id="SvgjsText1205" font-family="微软雅黑" text-anchor="middle" font-size="13px" width="100px" fill="#323232" font-weight="400" align="middle" lineHeight="125%" anchor="middle" family="微软雅黑" size="13px" weight="400" font-style="" opacity="1" y="9.375" transform="rotate(0)"><tspan id="SvgjsTspan1206" dy="16" x="50"><tspan id="SvgjsTspan1207" style="text-decoration:;">6.注入handler</tspan></tspan></text></g></g><g id="SvgjsG1208"><path id="SvgjsPath1209" d="M778.7515993324994 161.90879471515046L887.5518787144438 113.6456049312431" stroke="#323232" stroke-width="1.5" fill="none"></path></g></svg>