<svg id="SvgjsSvg1001" width="1227.999979654948" height="301.41669379340277" xmlns="http://www.w3.org/2000/svg" version="1.1" xmlns:xlink="http://www.w3.org/1999/xlink" xmlns:svgjs="http://svgjs.com/svgjs"><defs id="SvgjsDefs1002"><marker id="SvgjsMarker1047" markerWidth="14" markerHeight="10" refX="10" refY="5" viewBox="0 0 14 10" orient="auto" markerUnits="userSpaceOnUse" stroke-dasharray="0,0"><path id="SvgjsPath1048" d="M0,0 L14,5 L0,10 L0,0" fill="#323232" stroke="#323232" stroke-width="1"></path></marker><marker id="SvgjsMarker1051" markerWidth="14" markerHeight="10" refX="10" refY="5" viewBox="0 0 14 10" orient="auto" markerUnits="userSpaceOnUse" stroke-dasharray="0,0"><path id="SvgjsPath1052" d="M0,0 L14,5 L0,10 L0,0" fill="#323232" stroke="#323232" stroke-width="1"></path></marker><marker id="SvgjsMarker1055" markerWidth="14" markerHeight="10" refX="10" refY="5" viewBox="0 0 14 10" orient="auto" markerUnits="userSpaceOnUse" stroke-dasharray="0,0"><path id="SvgjsPath1056" d="M0,0 L14,5 L0,10 L0,0" fill="#323232" stroke="#323232" stroke-width="1"></path></marker><marker id="SvgjsMarker1065" markerWidth="14" markerHeight="10" refX="10" refY="5" viewBox="0 0 14 10" orient="auto" markerUnits="userSpaceOnUse" stroke-dasharray="0,0"><path id="SvgjsPath1066" d="M0,0 L14,5 L0,10 L0,0" fill="#323232" stroke="#323232" stroke-width="1"></path></marker><marker id="SvgjsMarker1111" markerWidth="14" markerHeight="10" refX="10" refY="5" viewBox="0 0 14 10" orient="auto" markerUnits="userSpaceOnUse" stroke-dasharray="0,0"><path id="SvgjsPath1112" d="M0,0 L14,5 L0,10 L0,0" fill="#323232" stroke="#323232" stroke-width="1"></path></marker><marker id="SvgjsMarker1139" markerWidth="14" markerHeight="10" refX="10" refY="5" viewBox="0 0 14 10" orient="auto" markerUnits="userSpaceOnUse" stroke-dasharray="0,0"><path id="SvgjsPath1140" d="M0,0 L14,5 L0,10 L0,0" fill="#323232" stroke="#323232" stroke-width="1"></path></marker><marker id="SvgjsMarker1143" markerWidth="14" markerHeight="10" refX="10" refY="5" viewBox="0 0 14 10" orient="auto" markerUnits="userSpaceOnUse" stroke-dasharray="0,0"><path id="SvgjsPath1144" d="M0,0 L14,5 L0,10 L0,0" fill="#323232" stroke="#323232" stroke-width="1"></path></marker><marker id="SvgjsMarker1147" markerWidth="14" markerHeight="10" refX="10" refY="5" viewBox="0 0 14 10" orient="auto" markerUnits="userSpaceOnUse" stroke-dasharray="0,0"><path id="SvgjsPath1148" d="M0,0 L14,5 L0,10 L0,0" fill="#323232" stroke="#323232" stroke-width="1"></path></marker><marker id="SvgjsMarker1151" markerWidth="14" markerHeight="10" refX="10" refY="5" viewBox="0 0 14 10" orient="auto" markerUnits="userSpaceOnUse" stroke-dasharray="0,0"><path id="SvgjsPath1152" d="M0,0 L14,5 L0,10 L0,0" fill="#323232" stroke="#323232" stroke-width="1"></path></marker></defs><rect id="svgbackgroundid" width="1227.999979654948" height="301.41669379340277" fill="#b0e38f"></rect><g id="SvgjsG1009" transform="translate(25.00002034505208,149.62500678168402)"><path id="SvgjsPath1010" d="M 16.666666666666668 0L 83.33333333333333 0C 105.55555555555556 0 105.55555555555556 50 83.33333333333333 50L 16.666666666666668 50C -5.555555555555556 50 -5.555555555555556 0 16.666666666666668 0Z" stroke="none" fill-opacity="1" fill="#ff9999"></path><g id="SvgjsG1011"><text id="SvgjsText1012" font-family="微软雅黑" text-anchor="middle" font-size="15px" width="80px" fill="#ffffff" font-weight="700" align="middle" lineHeight="125%" anchor="middle" family="微软雅黑" size="15px" weight="700" font-style="" opacity="1" y="12.625" transform="rotate(0)"><tspan id="SvgjsTspan1013" dy="18" x="50"><tspan id="SvgjsTspan1014" style="text-decoration:;">START</tspan></tspan></text></g></g><g id="SvgjsG1015" transform="translate(273.9615588065905,149.62500678168402)"><path id="SvgjsPath1016" d="M 16.666666666666668 0L 131.41025641025644 0C 153.63247863247864 0 153.63247863247864 50 131.41025641025644 50L 16.666666666666668 50C -5.555555555555556 50 -5.555555555555556 0 16.666666666666668 0Z" stroke="rgba(0,0,0,1)" stroke-width="2" fill-opacity="1" fill="#ffffff"></path><g id="SvgjsG1017"><text id="SvgjsText1018" font-family="微软雅黑" text-anchor="middle" font-size="13px" width="129px" fill="#323232" font-weight="400" align="middle" lineHeight="125%" anchor="middle" family="微软雅黑" size="13px" weight="400" font-style="" opacity="1" y="14.375" transform="rotate(0)"><tspan id="SvgjsTspan1019" dy="16" x="74.5"><tspan id="SvgjsTspan1020" style="text-decoration:;">服务器(外网)</tspan></tspan></text></g></g><g id="SvgjsG1021" transform="translate(603.0000203450521,149.62500678168402)"><path id="SvgjsPath1022" d="M 16.666666666666668 0L 139.33333333333334 0C 161.55555555555554 0 161.55555555555554 50 139.33333333333334 50L 16.666666666666668 50C -5.555555555555556 50 -5.555555555555556 0 16.666666666666668 0Z" stroke="rgba(0,0,0,1)" stroke-width="2" fill-opacity="1" fill="#ffffff"></path><g id="SvgjsG1023"><text id="SvgjsText1024" font-family="微软雅黑" text-anchor="middle" font-size="13px" width="136px" fill="#323232" font-weight="400" align="middle" lineHeight="125%" anchor="middle" family="微软雅黑" size="13px" weight="400" font-style="" opacity="1" y="14.375" transform="rotate(0)"><tspan id="SvgjsTspan1025" dy="16" x="78"><tspan id="SvgjsTspan1026" style="text-decoration:;">客户端(内网)</tspan></tspan></text></g></g><g id="SvgjsG1027" transform="translate(1103.000020345052,149.62500678168402)"><path id="SvgjsPath1028" d="M 16.666666666666668 0L 83.33333333333333 0C 105.55555555555556 0 105.55555555555556 50 83.33333333333333 50L 16.666666666666668 50C -5.555555555555556 50 -5.555555555555556 0 16.666666666666668 0Z" stroke="none" fill-opacity="1" fill="#99ccff"></path><g id="SvgjsG1029"><text id="SvgjsText1030" font-family="微软雅黑" text-anchor="middle" font-size="15px" width="80px" fill="#ffffff" font-weight="700" align="middle" lineHeight="125%" anchor="middle" family="微软雅黑" size="15px" weight="700" font-style="" opacity="1" y="12.625" transform="rotate(0)"><tspan id="SvgjsTspan1031" dy="18" x="50"><tspan id="SvgjsTspan1032" style="text-decoration:;">FINISH</tspan></tspan></text></g></g><g id="SvgjsG1033" transform="translate(849.2500203450522,149.62500678168402)"><path id="SvgjsPath1034" d="M 16.666666666666668 0L 114.33333333333333 0C 136.55555555555554 0 136.55555555555554 50 114.33333333333333 50L 16.666666666666668 50C -5.555555555555556 50 -5.555555555555556 0 16.666666666666668 0Z" stroke="rgba(227,98,126,1)" stroke-width="2" fill-opacity="1" fill="#ffffff"></path><g id="SvgjsG1035"><text id="SvgjsText1036" font-family="微软雅黑" text-anchor="middle" font-size="13px" width="111px" fill="#323232" font-weight="400" align="middle" lineHeight="125%" anchor="middle" family="微软雅黑" size="13px" weight="400" font-style="" opacity="1" y="14.375" transform="rotate(0)"><tspan id="SvgjsTspan1037" dy="16" x="65.5"><tspan id="SvgjsTspan1038" style="text-decoration:;">本地client服务</tspan></tspan></text></g></g><g id="SvgjsG1039" transform="translate(1106.500020345052,154.62500678168402)"><path id="SvgjsPath1040" d="M 0 0L 93 0L 93 40L 0 40Z" stroke="none" fill="none"></path><g id="SvgjsG1041"><text id="SvgjsText1042" font-family="微软雅黑" text-anchor="middle" font-size="17px" width="93px" fill="#323232" font-weight="700" align="middle" lineHeight="125%" anchor="middle" family="微软雅黑" size="17px" weight="700" font-style="" opacity="1" y="5.375" transform="rotate(0)"><tspan id="SvgjsTspan1043" dy="21" x="46.5"><tspan id="SvgjsTspan1044" style="text-decoration:;">8080服务</tspan></tspan></text></g></g><g id="SvgjsG1045"><path id="SvgjsPath1046" d="M125.00002034505209 174.62500678168402C 177.76925111428287 139.24038992987738 219.1154049604367 129.62500531449277 271.0893480831476 172.4546599061502" stroke="#323232" stroke-width="2" fill="none" marker-end="url(#SvgjsMarker1047)"></path></g><g id="SvgjsG1049"><path id="SvgjsPath1050" d="M423.00222600533186 174.89183494298038C 489.3077126527443 194.04808223756967 535.4615588065906 195.9711591606466 599.551226209935 175.65739189082774" stroke="#323232" stroke-width="2" fill="none" marker-end="url(#SvgjsMarker1051)"></path></g><g id="SvgjsG1053"><path id="SvgjsPath1054" d="M273.10903696437697 175.14769838152927C 220.07694342197516 210.39423608372354 169.1154049604367 210.39423608372354 127.09357858217331 176.16676354193572" stroke="#323232" stroke-width="2" fill="none" marker-end="url(#SvgjsMarker1055)"></path></g><g id="SvgjsG1057" transform="translate(25.000020345052086,107.62500678168402)"><path id="SvgjsPath1058" d="M 0 0L 100 0L 100 40L 0 40Z" stroke="none" fill="none"></path><g id="SvgjsG1059"><text id="SvgjsText1060" font-family="微软雅黑" text-anchor="middle" font-size="13px" width="100px" fill="#323232" font-weight="400" align="middle" lineHeight="125%" anchor="middle" family="微软雅黑" size="13px" weight="400" font-style="" opacity="1" y="9.375" transform="rotate(0)"><tspan id="SvgjsTspan1061" dy="16" x="50"><tspan id="SvgjsTspan1062" style="text-decoration:;">用户请求</tspan></tspan></text></g></g><g id="SvgjsG1063"><path id="SvgjsPath1064" d="M602.149742376363 174.09867288009502C 536.423097268129 130.58654377603122 487.3846357296674 140.20192839141583 425.24679250936 172.99199026980142" stroke="#323232" stroke-width="2" fill="none" marker-end="url(#SvgjsMarker1065)"></path></g><g id="SvgjsG1067" transform="translate(149.0000203450521,107.62500678168402)"><path id="SvgjsPath1068" d="M 0 0L 100 0L 100 40L 0 40Z" stroke="none" fill="none"></path><g id="SvgjsG1069"><text id="SvgjsText1070" font-family="微软雅黑" text-anchor="middle" font-size="13px" width="100px" fill="#323232" font-weight="400" align="middle" lineHeight="125%" anchor="middle" family="微软雅黑" size="13px" weight="400" font-style="" opacity="1" y="9.375" transform="rotate(0)"><tspan id="SvgjsTspan1071" dy="16" x="50"><tspan id="SvgjsTspan1072" style="text-decoration:;">监听用户活动</tspan></tspan></text></g></g><g id="SvgjsG1073" transform="translate(468.00002034505206,107.62500678168404)"><path id="SvgjsPath1074" d="M 0 0L 100 0L 100 40L 0 40Z" stroke="none" fill="none"></path><g id="SvgjsG1075"><text id="SvgjsText1076" font-family="微软雅黑" text-anchor="middle" font-size="13px" width="100px" fill="#323232" font-weight="400" align="middle" lineHeight="125%" anchor="middle" family="微软雅黑" size="13px" weight="400" font-style="" opacity="1" y="9.375" transform="rotate(0)"><tspan id="SvgjsTspan1077" dy="16" x="50"><tspan id="SvgjsTspan1078" style="text-decoration:;">转发</tspan></tspan></text></g></g><g id="SvgjsG1079" transform="translate(298.00002034505206,117.47116062783769)"><path id="SvgjsPath1080" d="M 0 0L 100 0L 100 40L 0 40Z" stroke="none" fill="none"></path><g id="SvgjsG1081"><text id="SvgjsText1082" font-family="微软雅黑" text-anchor="middle" font-size="13px" width="100px" fill="#323232" font-weight="400" align="middle" lineHeight="125%" anchor="middle" family="微软雅黑" size="13px" weight="400" font-style="" opacity="1" y="9.375" transform="rotate(0)"><tspan id="SvgjsTspan1083" dy="16" x="50"><tspan id="SvgjsTspan1084" style="text-decoration:;">HTTP/TCP</tspan></tspan></text></g></g><g id="SvgjsG1085" transform="translate(149.0000203450521,201.62500678168402)"><path id="SvgjsPath1086" d="M 0 0L 100 0L 100 40L 0 40Z" stroke="none" fill="none"></path><g id="SvgjsG1087"><text id="SvgjsText1088" font-family="微软雅黑" text-anchor="middle" font-size="13px" width="100px" fill="#323232" font-weight="400" align="middle" lineHeight="125%" anchor="middle" family="微软雅黑" size="13px" weight="400" font-style="" opacity="1" y="9.375" transform="rotate(0)"><tspan id="SvgjsTspan1089" dy="16" x="50"><tspan id="SvgjsTspan1090" style="text-decoration:;">返回结果</tspan></tspan></text></g></g><g id="SvgjsG1091" transform="translate(149.0000203450521,154.62500678168402)"><path id="SvgjsPath1092" d="M 0 0L 100 0L 100 40L 0 40Z" stroke="none" fill="none"></path><g id="SvgjsG1093"><text id="SvgjsText1094" font-family="微软雅黑" text-anchor="middle" font-size="13px" width="100px" fill="#4669ea" font-weight="400" align="middle" lineHeight="125%" anchor="middle" family="微软雅黑" size="13px" weight="400" font-style="" opacity="1" y="9.375" transform="rotate(0)"><tspan id="SvgjsTspan1095" dy="16" x="50"><tspan id="SvgjsTspan1096" style="text-decoration:;">VisitorChannel</tspan></tspan></text></g></g><g id="SvgjsG1097" transform="translate(468.00002034505206,154.62500678168402)"><path id="SvgjsPath1098" d="M 0 0L 100 0L 100 40L 0 40Z" stroke="none" fill="none"></path><g id="SvgjsG1099"><text id="SvgjsText1100" font-family="微软雅黑" text-anchor="middle" font-size="13px" width="100px" fill="#323232" font-weight="400" align="middle" lineHeight="125%" anchor="middle" family="微软雅黑" size="13px" weight="400" font-style="" opacity="1" y="9.375" transform="rotate(0)"><tspan id="SvgjsTspan1101" dy="16" x="50"><tspan id="SvgjsTspan1102" style="text-decoration:;fill: rgb(70, 105, 234);">ProxyChannel</tspan></tspan></text></g></g><g id="SvgjsG1103" transform="translate(985.846174191206,154.62500678168402)"><path id="SvgjsPath1104" d="M 0 0L 116.34615384615381 0L 116.34615384615381 40L 0 40Z" stroke="none" fill="none"></path><g id="SvgjsG1105"><text id="SvgjsText1106" font-family="微软雅黑" text-anchor="middle" font-size="13px" width="117px" fill="#323232" font-weight="400" align="middle" lineHeight="125%" anchor="middle" family="微软雅黑" size="13px" weight="400" font-style="" opacity="1" y="9.375" transform="rotate(0)"><tspan id="SvgjsTspan1107" dy="16" x="58.5"><tspan id="SvgjsTspan1108" style="text-decoration:;fill: rgb(70, 105, 234);">RealServerChannel</tspan></tspan></text></g></g><g id="SvgjsG1109"><path id="SvgjsPath1110" d="M274.5212813218681 173.7963266830384L345.9850192900528 67.99286905423243" stroke="#323232" stroke-width="2" fill="none" marker-end="url(#SvgjsMarker1111)"></path></g><g id="SvgjsG1113" transform="translate(298.00002034505206,25.009620699108154)"><path id="SvgjsPath1114" d="M 0 0L 100 0L 100 40L 0 40Z" stroke="none" fill="none"></path><g id="SvgjsG1115"><text id="SvgjsText1116" font-family="微软雅黑" text-anchor="middle" font-size="13px" width="100px" fill="#323232" font-weight="400" align="middle" lineHeight="125%" anchor="middle" family="微软雅黑" size="13px" weight="400" font-style="" opacity="1" y="9.375" transform="rotate(0)"><tspan id="SvgjsTspan1117" dy="16" x="50"><tspan id="SvgjsTspan1118" style="text-decoration:;fill: rgb(70, 105, 234);">ProxyChannel</tspan></tspan></text></g></g><g id="SvgjsG1119" transform="translate(298.00002034505206,201.62500678168402)"><path id="SvgjsPath1120" d="M 0 0L 100 0L 100 40L 0 40Z" stroke="none" fill="none"></path><g id="SvgjsG1121"><text id="SvgjsText1122" font-family="微软雅黑" text-anchor="middle" font-size="13px" width="100px" fill="#323232" font-weight="400" align="middle" lineHeight="125%" anchor="middle" family="微软雅黑" size="13px" weight="400" font-style="" opacity="1" y="9.375" transform="rotate(0)"><tspan id="SvgjsTspan1123" dy="16" x="50"><tspan id="SvgjsTspan1124" style="text-decoration:;">Server</tspan></tspan></text></g></g><g id="SvgjsG1125" transform="translate(631.0000203450521,201.62500678168402)"><path id="SvgjsPath1126" d="M 0 0L 100 0L 100 40L 0 40Z" stroke="none" fill="none"></path><g id="SvgjsG1127"><text id="SvgjsText1128" font-family="微软雅黑" text-anchor="middle" font-size="13px" width="100px" fill="#323232" font-weight="400" align="middle" lineHeight="125%" anchor="middle" family="微软雅黑" size="13px" weight="400" font-style="" opacity="1" y="9.375" transform="rotate(0)"><tspan id="SvgjsTspan1129" dy="16" x="50"><tspan id="SvgjsTspan1130" style="text-decoration:;">Client</tspan></tspan></text></g></g><g id="SvgjsG1131" transform="translate(890.2692511142828,201.62500678168402)"><path id="SvgjsPath1132" d="M 0 0L 100 0L 100 40L 0 40Z" stroke="none" fill="none"></path><g id="SvgjsG1133"><text id="SvgjsText1134" font-family="微软雅黑" text-anchor="middle" font-size="13px" width="100px" fill="#323232" font-weight="400" align="middle" lineHeight="125%" anchor="middle" family="微软雅黑" size="13px" weight="400" font-style="" opacity="1" y="9.375" transform="rotate(0)"><tspan id="SvgjsTspan1135" dy="16" x="50"><tspan id="SvgjsTspan1136" style="text-decoration:;">CLient</tspan></tspan></text></g></g><g id="SvgjsG1137"><path id="SvgjsPath1138" d="M1103.000020345052 174.62500678168402C 1064.3077126527444 121.93269762218506 1022.000020345052 128.6634668529543 982.7873706523693 172.07121481326578" stroke="#323232" stroke-width="2" fill="none" marker-end="url(#SvgjsMarker1139)"></path></g><g id="SvgjsG1141"><path id="SvgjsPath1142" d="M980.8982218186127 175.38647565804996C 1024.8846357296673 236.355774545262 1082.576943421975 214.24038992987738 1101.607480020783 176.8206459700035" stroke="#323232" stroke-width="2" fill="none" marker-end="url(#SvgjsMarker1143)"></path></g><g id="SvgjsG1145"><path id="SvgjsPath1146" d="M981.2500203450522 174.62500678168402L981.4038664988987 174.62500678168402L981.4038664988987 101.8173144739916L708.5384818835137 101.8173144739916L708.5384818835137 113.51923755091468L704.7548280373597 113.51923755091468L704.7548280373597 102.9423144739916L681.0000203450521 102.9423144739916L681.0000203450521 146.02500678168403" stroke="#323232" stroke-width="2" fill="none" marker-end="url(#SvgjsMarker1147)"></path></g><g id="SvgjsG1149"><path id="SvgjsPath1150" d="M681.0000203450521 202.62500678168402L681.0000203450521 276.7403899298771L971.423097268129 276.7403899298771L971.423097268129 174.20192839141603L982.246174191206 174.20192839141603" stroke="#323232" stroke-width="2" fill="none" marker-end="url(#SvgjsMarker1151)"></path></g></svg>