<svg id="SvgjsSvg1298" width="1227.6682516244741" height="301.9230798574594" xmlns="http://www.w3.org/2000/svg" version="1.1" xmlns:xlink="http://www.w3.org/1999/xlink" xmlns:svgjs="http://svgjs.com/svgjs"><defs id="SvgjsDefs1299"><marker id="SvgjsMarker1338" markerWidth="14" markerHeight="10" refX="10" refY="5" viewBox="0 0 14 10" orient="auto" markerUnits="userSpaceOnUse" stroke-dasharray="0,0"><path id="SvgjsPath1339" d="M0,0 L14,5 L0,10 L0,0" fill="#323232" stroke="#323232" stroke-width="1"></path></marker><marker id="SvgjsMarker1342" markerWidth="14" markerHeight="10" refX="10" refY="5" viewBox="0 0 14 10" orient="auto" markerUnits="userSpaceOnUse" stroke-dasharray="0,0"><path id="SvgjsPath1343" d="M0,0 L14,5 L0,10 L0,0" fill="#323232" stroke="#323232" stroke-width="1"></path></marker><marker id="SvgjsMarker1346" markerWidth="14" markerHeight="10" refX="10" refY="5" viewBox="0 0 14 10" orient="auto" markerUnits="userSpaceOnUse" stroke-dasharray="0,0"><path id="SvgjsPath1347" d="M0,0 L14,5 L0,10 L0,0" fill="#323232" stroke="#323232" stroke-width="1"></path></marker><marker id="SvgjsMarker1356" markerWidth="14" markerHeight="10" refX="10" refY="5" viewBox="0 0 14 10" orient="auto" markerUnits="userSpaceOnUse" stroke-dasharray="0,0"><path id="SvgjsPath1357" d="M0,0 L14,5 L0,10 L0,0" fill="#323232" stroke="#323232" stroke-width="1"></path></marker><marker id="SvgjsMarker1402" markerWidth="14" markerHeight="10" refX="10" refY="5" viewBox="0 0 14 10" orient="auto" markerUnits="userSpaceOnUse" stroke-dasharray="0,0"><path id="SvgjsPath1403" d="M0,0 L14,5 L0,10 L0,0" fill="#323232" stroke="#323232" stroke-width="1"></path></marker><marker id="SvgjsMarker1430" markerWidth="14" markerHeight="10" refX="10" refY="5" viewBox="0 0 14 10" orient="auto" markerUnits="userSpaceOnUse" stroke-dasharray="0,0"><path id="SvgjsPath1431" d="M0,0 L14,5 L0,10 L0,0" fill="#323232" stroke="#323232" stroke-width="1"></path></marker><marker id="SvgjsMarker1434" markerWidth="14" markerHeight="10" refX="10" refY="5" viewBox="0 0 14 10" orient="auto" markerUnits="userSpaceOnUse" stroke-dasharray="0,0"><path id="SvgjsPath1435" d="M0,0 L14,5 L0,10 L0,0" fill="#323232" stroke="#323232" stroke-width="1"></path></marker><marker id="SvgjsMarker1438" markerWidth="14" markerHeight="10" refX="10" refY="5" viewBox="0 0 14 10" orient="auto" markerUnits="userSpaceOnUse" stroke-dasharray="0,0"><path id="SvgjsPath1439" d="M0,0 L14,5 L0,10 L0,0" fill="#323232" stroke="#323232" stroke-width="1"></path></marker><marker id="SvgjsMarker1442" markerWidth="14" markerHeight="10" refX="10" refY="5" viewBox="0 0 14 10" orient="auto" markerUnits="userSpaceOnUse" stroke-dasharray="0,0"><path id="SvgjsPath1443" d="M0,0 L14,5 L0,10 L0,0" fill="#323232" stroke="#323232" stroke-width="1"></path></marker></defs><g id="SvgjsG1300" transform="translate(25.002386239858794,148.61538314819325)"><path id="SvgjsPath1301" d="M 16.666666666666668 0L 83.33333333333333 0C 105.55555555555556 0 105.55555555555556 50 83.33333333333333 50L 16.666666666666668 50C -5.555555555555556 50 -5.555555555555556 0 16.666666666666668 0Z" stroke="none" fill-opacity="1" fill="#ff9999"></path><g id="SvgjsG1302"><text id="SvgjsText1303" font-family="微软雅黑" text-anchor="middle" font-size="15px" width="80px" fill="#ffffff" font-weight="700" align="middle" lineHeight="125%" anchor="middle" family="微软雅黑" size="15px" weight="700" font-style="" opacity="1" y="12.625" transform="rotate(0)"><tspan id="SvgjsTspan1304" dy="18" x="50"><tspan id="SvgjsTspan1305" style="text-decoration:;">START</tspan></tspan></text></g></g><g id="SvgjsG1306" transform="translate(273.42546316293567,148.61538314819325)"><path id="SvgjsPath1307" d="M 16.666666666666668 0L 131.41025641025644 0C 153.63247863247864 0 153.63247863247864 50 131.41025641025644 50L 16.666666666666668 50C -5.555555555555556 50 -5.555555555555556 0 16.666666666666668 0Z" stroke="rgba(0,0,0,1)" stroke-width="2" fill-opacity="1" fill="#ffffff"></path><g id="SvgjsG1308"><text id="SvgjsText1309" font-family="微软雅黑" text-anchor="middle" font-size="13px" width="129px" fill="#323232" font-weight="400" align="middle" lineHeight="125%" anchor="middle" family="微软雅黑" size="13px" weight="400" font-style="" opacity="1" y="14.375" transform="rotate(0)"><tspan id="SvgjsTspan1310" dy="16" x="74.5"><tspan id="SvgjsTspan1311" style="text-decoration:;">服务器(外网)</tspan></tspan></text></g></g><g id="SvgjsG1312" transform="translate(601.6946939321664,148.61538314819325)"><path id="SvgjsPath1313" d="M 16.666666666666668 0L 139.33333333333334 0C 161.55555555555554 0 161.55555555555554 50 139.33333333333334 50L 16.666666666666668 50C -5.555555555555556 50 -5.555555555555556 0 16.666666666666668 0Z" stroke="rgba(0,0,0,1)" stroke-width="2" fill-opacity="1" fill="#ffffff"></path><g id="SvgjsG1314"><text id="SvgjsText1315" font-family="微软雅黑" text-anchor="middle" font-size="13px" width="136px" fill="#323232" font-weight="400" align="middle" lineHeight="125%" anchor="middle" family="微软雅黑" size="13px" weight="400" font-style="" opacity="1" y="14.375" transform="rotate(0)"><tspan id="SvgjsTspan1316" dy="16" x="78"><tspan id="SvgjsTspan1317" style="text-decoration:;">客户端(内网)</tspan></tspan></text></g></g><g id="SvgjsG1318" transform="translate(1101.579309316783,148.6153831481933)"><path id="SvgjsPath1319" d="M 16.666666666666668 0L 83.33333333333333 0C 105.55555555555556 0 105.55555555555556 50 83.33333333333333 50L 16.666666666666668 50C -5.555555555555556 50 -5.555555555555556 0 16.666666666666668 0Z" stroke="none" fill-opacity="1" fill="#99ccff"></path><g id="SvgjsG1320"><text id="SvgjsText1321" font-family="微软雅黑" text-anchor="middle" font-size="15px" width="80px" fill="#ffffff" font-weight="700" align="middle" lineHeight="125%" anchor="middle" family="微软雅黑" size="15px" weight="700" font-style="" opacity="1" y="12.625" transform="rotate(0)"><tspan id="SvgjsTspan1322" dy="18" x="50"><tspan id="SvgjsTspan1323" style="text-decoration:;">FINISH</tspan></tspan></text></g></g><g id="SvgjsG1324" transform="translate(850.6754631629358,149.11538314819325)"><path id="SvgjsPath1325" d="M 16.333333333333332 0L 114.66666666666667 0C 136.44444444444446 0 136.44444444444446 49 114.66666666666667 49L 16.333333333333332 49C -5.444444444444444 49 -5.444444444444444 0 16.333333333333332 0Z" stroke="rgba(227,98,126,1)" stroke-width="2" fill-opacity="1" fill="#ffffff"></path><g id="SvgjsG1326"><text id="SvgjsText1327" font-family="微软雅黑" text-anchor="middle" font-size="13px" width="111px" fill="#323232" font-weight="400" align="middle" lineHeight="125%" anchor="middle" family="微软雅黑" size="13px" weight="400" font-style="" opacity="1" y="13.875" transform="rotate(0)"><tspan id="SvgjsTspan1328" dy="16" x="65.5"><tspan id="SvgjsTspan1329" style="text-decoration:;">本地client服务</tspan></tspan></text></g></g><g id="SvgjsG1330" transform="translate(1109.2139247013974,155.11538314819327)"><path id="SvgjsPath1331" d="M 0 0L 93 0L 93 37L 0 37Z" stroke="none" fill="none"></path><g id="SvgjsG1332"><text id="SvgjsText1333" font-family="微软雅黑" text-anchor="middle" font-size="17px" width="93px" fill="#323232" font-weight="700" align="middle" lineHeight="125%" anchor="middle" family="微软雅黑" size="17px" weight="700" font-style="" opacity="1" y="3.875" transform="rotate(0)"><tspan id="SvgjsTspan1334" dy="21" x="46.5"><tspan id="SvgjsTspan1335" style="text-decoration:;">8080服务</tspan></tspan></text></g></g><g id="SvgjsG1336"><path id="SvgjsPath1337" d="M125.00238623985877 173.61538314819325C 179.19469393216647 139.23076629638672 220.5408477783203 129.6153816810021 270.5647036783088 171.4299643848627" stroke="#323232" stroke-width="2" fill="none" marker-end="url(#SvgjsMarker1338)"></path></g><g id="SvgjsG1340"><path id="SvgjsPath1341" d="M422.4645592592932 173.88782228024354C 490.73315547062793 194.038458604079 536.8870016244741 195.96153552715595 598.8461452402114 174.7226966361541" stroke="#323232" stroke-width="2" fill="none" marker-end="url(#SvgjsMarker1342)"></path></g><g id="SvgjsG1344"><path id="SvgjsPath1345" d="M272.58778308464457 174.16154437570245C 221.50238623985877 210.38461245023288 170.5408477783203 210.38461245023288 127.09714346898934 175.15551046468534" stroke="#323232" stroke-width="2" fill="none" marker-end="url(#SvgjsMarker1346)"></path></g><g id="SvgjsG1348" transform="translate(26.925463162935714,108.61538314819325)"><path id="SvgjsPath1349" d="M 0 0L 100 0L 100 40L 0 40Z" stroke="none" fill="none"></path><g id="SvgjsG1350"><text id="SvgjsText1351" font-family="微软雅黑" text-anchor="middle" font-size="13px" width="100px" fill="#323232" font-weight="400" align="middle" lineHeight="125%" anchor="middle" family="微软雅黑" size="13px" weight="400" font-style="" opacity="1" y="9.375" transform="rotate(0)"><tspan id="SvgjsTspan1352" dy="16" x="50"><tspan id="SvgjsTspan1353" style="text-decoration:;">用户请求</tspan></tspan></text></g></g><g id="SvgjsG1354"><path id="SvgjsPath1355" d="M600.8482504792173 173.08290452800304C 537.8485400860126 130.57692014254056 488.81007854755103 140.19230475792517 424.7469543534985 172.05564671021668" stroke="#323232" stroke-width="2" fill="none" marker-end="url(#SvgjsMarker1356)"></path></g><g id="SvgjsG1358" transform="translate(150.17546316293573,102.88461245023288)"><path id="SvgjsPath1359" d="M 0 0L 100 0L 100 40L 0 40Z" stroke="none" fill="none"></path><g id="SvgjsG1360"><text id="SvgjsText1361" font-family="微软雅黑" text-anchor="middle" font-size="13px" width="100px" fill="#323232" font-weight="400" align="middle" lineHeight="125%" anchor="middle" family="微软雅黑" size="13px" weight="400" font-style="" opacity="1" y="9.375" transform="rotate(0)"><tspan id="SvgjsTspan1362" dy="16" x="50"><tspan id="SvgjsTspan1363" style="text-decoration:;">监听用户活动</tspan></tspan></text></g></g><g id="SvgjsG1364" transform="translate(469.2908477783202,108.61538314819326)"><path id="SvgjsPath1365" d="M 0 0L 100 0L 100 40L 0 40Z" stroke="none" fill="none"></path><g id="SvgjsG1366"><text id="SvgjsText1367" font-family="微软雅黑" text-anchor="middle" font-size="13px" width="100px" fill="#323232" font-weight="400" align="middle" lineHeight="125%" anchor="middle" family="微软雅黑" size="13px" weight="400" font-style="" opacity="1" y="9.375" transform="rotate(0)"><tspan id="SvgjsTspan1368" dy="16" x="50"><tspan id="SvgjsTspan1369" style="text-decoration:;">转发</tspan></tspan></text></g></g><g id="SvgjsG1370" transform="translate(297.4639247013972,117.46153699434703)"><path id="SvgjsPath1371" d="M 0 0L 100 0L 100 40L 0 40Z" stroke="none" fill="none"></path><g id="SvgjsG1372"><text id="SvgjsText1373" font-family="微软雅黑" text-anchor="middle" font-size="13px" width="100px" fill="#323232" font-weight="400" align="middle" lineHeight="125%" anchor="middle" family="微软雅黑" size="13px" weight="400" font-style="" opacity="1" y="9.375" transform="rotate(0)"><tspan id="SvgjsTspan1374" dy="16" x="50"><tspan id="SvgjsTspan1375" style="text-decoration:;">HTTP/TCP</tspan></tspan></text></g></g><g id="SvgjsG1376" transform="translate(150.17546316293573,207.69230475792517)"><path id="SvgjsPath1377" d="M 0 0L 100 0L 100 40L 0 40Z" stroke="none" fill="none"></path><g id="SvgjsG1378"><text id="SvgjsText1379" font-family="微软雅黑" text-anchor="middle" font-size="13px" width="100px" fill="#323232" font-weight="400" align="middle" lineHeight="125%" anchor="middle" family="微软雅黑" size="13px" weight="400" font-style="" opacity="1" y="9.375" transform="rotate(0)"><tspan id="SvgjsTspan1380" dy="16" x="50"><tspan id="SvgjsTspan1381" style="text-decoration:;">返回结果</tspan></tspan></text></g></g><g id="SvgjsG1382" transform="translate(150.17546316293573,153.61538314819325)"><path id="SvgjsPath1383" d="M 0 0L 100 0L 100 40L 0 40Z" stroke="none" fill="none"></path><g id="SvgjsG1384"><text id="SvgjsText1385" font-family="微软雅黑" text-anchor="middle" font-size="13px" width="100px" fill="#4669ea" font-weight="400" align="middle" lineHeight="125%" anchor="middle" family="微软雅黑" size="13px" weight="400" font-style="" opacity="1" y="9.375" transform="rotate(0)"><tspan id="SvgjsTspan1386" dy="16" x="50"><tspan id="SvgjsTspan1387" style="text-decoration:;">VisitorChannel</tspan></tspan></text></g></g><g id="SvgjsG1388" transform="translate(469.2908477783202,148.61538314819327)"><path id="SvgjsPath1389" d="M 0 0L 100 0L 100 40L 0 40Z" stroke="none" fill="none"></path><g id="SvgjsG1390"><text id="SvgjsText1391" font-family="微软雅黑" text-anchor="middle" font-size="13px" width="100px" fill="#323232" font-weight="400" align="middle" lineHeight="125%" anchor="middle" family="微软雅黑" size="13px" weight="400" font-style="" opacity="1" y="9.375" transform="rotate(0)"><tspan id="SvgjsTspan1392" dy="16" x="50"><tspan id="SvgjsTspan1393" style="text-decoration:;fill: rgb(70, 105, 234);">ProxyChannel</tspan></tspan></text></g></g><g id="SvgjsG1394" transform="translate(987.2716170090896,158.11538314819316)"><path id="SvgjsPath1395" d="M 0 0L 116.34615384615381 0L 116.34615384615381 40L 0 40Z" stroke="none" fill="none"></path><g id="SvgjsG1396"><text id="SvgjsText1397" font-family="微软雅黑" text-anchor="middle" font-size="13px" width="117px" fill="#323232" font-weight="400" align="middle" lineHeight="125%" anchor="middle" family="微软雅黑" size="13px" weight="400" font-style="" opacity="1" y="9.375" transform="rotate(0)"><tspan id="SvgjsTspan1398" dy="16" x="58.5"><tspan id="SvgjsTspan1399" style="text-decoration:;fill: rgb(70, 105, 234);">RealServerChannel</tspan></tspan></text></g></g><g id="SvgjsG1400"><path id="SvgjsPath1401" d="M274.02673001655603 172.81633485757655L352.99167172067155 67.87657091183756" stroke="#323232" stroke-width="2" fill="none" marker-end="url(#SvgjsMarker1402)"></path></g><g id="SvgjsG1404" transform="translate(305.15623239370495,24.999997065617485)"><path id="SvgjsPath1405" d="M 0 0L 100 0L 100 40L 0 40Z" stroke="none" fill="none"></path><g id="SvgjsG1406"><text id="SvgjsText1407" font-family="微软雅黑" text-anchor="middle" font-size="13px" width="100px" fill="#323232" font-weight="400" align="middle" lineHeight="125%" anchor="middle" family="微软雅黑" size="13px" weight="400" font-style="" opacity="1" y="9.375" transform="rotate(0)"><tspan id="SvgjsTspan1408" dy="16" x="50"><tspan id="SvgjsTspan1409" style="text-decoration:;fill: rgb(70, 105, 234);">ProxyChannel</tspan></tspan></text></g></g><g id="SvgjsG1410" transform="translate(297.4639247013972,198.61538314819325)"><path id="SvgjsPath1411" d="M 0 0L 100 0L 100 40L 0 40Z" stroke="none" fill="none"></path><g id="SvgjsG1412"><text id="SvgjsText1413" font-family="微软雅黑" text-anchor="middle" font-size="13px" width="100px" fill="#323232" font-weight="400" align="middle" lineHeight="125%" anchor="middle" family="微软雅黑" size="13px" weight="400" font-style="" opacity="1" y="9.375" transform="rotate(0)"><tspan id="SvgjsTspan1414" dy="16" x="50"><tspan id="SvgjsTspan1415" style="text-decoration:;">Server</tspan></tspan></text></g></g><g id="SvgjsG1416" transform="translate(634.9639247013976,198.11538314819327)"><path id="SvgjsPath1417" d="M 0 0L 100 0L 100 40L 0 40Z" stroke="none" fill="none"></path><g id="SvgjsG1418"><text id="SvgjsText1419" font-family="微软雅黑" text-anchor="middle" font-size="13px" width="100px" fill="#323232" font-weight="400" align="middle" lineHeight="125%" anchor="middle" family="微软雅黑" size="13px" weight="400" font-style="" opacity="1" y="9.375" transform="rotate(0)"><tspan id="SvgjsTspan1420" dy="16" x="50"><tspan id="SvgjsTspan1421" style="text-decoration:;">Client</tspan></tspan></text></g></g><g id="SvgjsG1422" transform="translate(891.6946939321664,198.61538314819322)"><path id="SvgjsPath1423" d="M 0 0L 100 0L 100 40L 0 40Z" stroke="none" fill="none"></path><g id="SvgjsG1424"><text id="SvgjsText1425" font-family="微软雅黑" text-anchor="middle" font-size="13px" width="100px" fill="#323232" font-weight="400" align="middle" lineHeight="125%" anchor="middle" family="微软雅黑" size="13px" weight="400" font-style="" opacity="1" y="9.375" transform="rotate(0)"><tspan id="SvgjsTspan1426" dy="16" x="50"><tspan id="SvgjsTspan1427" style="text-decoration:;">CLient</tspan></tspan></text></g></g><g id="SvgjsG1428"><path id="SvgjsPath1429" d="M1101.579309316783 173.6153831481933C 1065.7331554706282 121.9230739886944 1023.4254631629358 128.65384321946362 984.2429020583435 171.0918424771623" stroke="#323232" stroke-width="2" fill="none" marker-end="url(#SvgjsMarker1430)"></path></g><g id="SvgjsG1432"><path id="SvgjsPath1433" d="M982.3184656726943 174.38124721736233C 1026.310078547551 236.34615091177133 1084.0023862398589 214.23076629638672 1100.9470317114997 175.87393725967775" stroke="#323232" stroke-width="2" fill="none" marker-end="url(#SvgjsMarker1434)"></path></g><g id="SvgjsG1436"><path id="SvgjsPath1437" d="M982.6754631629358 173.61538314819325L982.8293093167822 173.61538314819325L982.8293093167822 101.80769084050094L709.9639247013972 101.80769084050094L709.9639247013972 113.50961391742402L706.1802708552433 113.50961391742402L706.1802708552433 102.93269084050094L679.6946939321664 102.93269084050094L679.6946939321664 145.01538314819325" stroke="#323232" stroke-width="2" fill="none" marker-end="url(#SvgjsMarker1438)"></path></g><g id="SvgjsG1440"><path id="SvgjsPath1441" d="M684.9639247013976 199.11538314819327L684.9639247013976 276.73076629638643L972.8485400860126 276.73076629638643L972.8485400860126 177.69230475792517L984.2485400860126 177.69230475792517" stroke="#323232" stroke-width="2" fill="none" marker-end="url(#SvgjsMarker1442)"></path></g></svg>